<?xml version="1.0" standalone="no"?>
<!DOCTYPE svg PUBLIC "-//W3C//DTD SVG 20010904//EN"
 "http://www.w3.org/TR/2001/REC-SVG-20010904/DTD/svg10.dtd">
<svg version="1.0" xmlns="http://www.w3.org/2000/svg"
 width="225.000000pt" height="225.000000pt" viewBox="0 0 225.000000 225.000000"
 preserveAspectRatio="xMidYMid meet">

<g transform="translate(0.000000,225.000000) scale(0.100000,-0.100000)"
fill="#000000" stroke="none">
<path d="M585 1760 c-116 -18 -197 -76 -247 -178 -32 -64 -33 -72 -33 -182 0
-93 5 -128 23 -184 97 -293 318 -514 748 -751 l51 -28 97 52 c104 55 246 147
336 217 62 48 140 118 140 126 0 3 -24 10 -53 17 -29 6 -66 20 -83 30 -27 17
-32 27 -43 91 -29 177 -115 340 -260 494 -197 206 -473 328 -676 296z m223
-40 c189 -52 422 -217 472 -333 44 -99 20 -273 -40 -305 -17 -8 -56 -12 -120
-10 -84 3 -103 7 -160 35 -36 18 -81 48 -101 68 l-37 35 -30 -72 c-31 -77 -52
-159 -52 -209 0 -34 -34 -59 -107 -80 l-46 -12 -48 54 c-52 58 -61 76 -30 59
36 -19 72 -11 106 23 45 45 59 102 59 227 -1 97 -4 114 -44 230 -47 134 -55
203 -31 273 l13 37 61 0 c35 0 95 -9 135 -20z m49 -703 c-11 -20 -30 -45 -41
-55 -19 -17 -19 -16 -12 17 3 19 11 52 17 73 10 38 10 38 34 21 l23 -18 -21
-38z m600 -57 c-1 -9 -17 6 -40 40 l-37 55 22 17 c23 17 23 17 41 -40 10 -31
16 -63 14 -72z m-417 -145 c10 -12 10 -18 0 -30 -25 -30 -61 -7 -46 30 3 8 12
15 19 15 8 0 20 -7 27 -15z m235 5 c11 -18 -6 -50 -26 -50 -22 0 -34 22 -25
45 6 17 42 20 51 5z m-100 -81 c8 -12 -22 -49 -40 -49 -18 0 -48 37 -40 49 3
6 21 11 40 11 19 0 37 -5 40 -11z"/>
<path d="M780 1545 c-10 -12 -10 -18 0 -30 16 -19 39 -19 46 0 6 15 -11 45
-26 45 -4 0 -13 -7 -20 -15z"/>
<path d="M1545 1753 c-111 -15 -285 -85 -304 -122 -14 -25 -1 -57 28 -66 10
-3 49 9 93 30 244 116 435 67 484 -124 23 -93 1 -221 -61 -342 -28 -54 -112
-172 -145 -204 -16 -16 -30 -32 -30 -36 0 -9 57 -29 85 -29 13 0 35 14 52 34
49 55 132 201 166 289 29 76 31 92 32 207 0 115 -2 129 -26 180 -47 97 -118
152 -227 176 -67 14 -90 15 -147 7z"/>
</g>
</svg>
